# xmcd
#
# Track frame offsets:
#	150
#	19160
#	38195
#	57650
#	75652
#	95742
#	108615
#	119092
#	131122
#	141382
#	151120
#	160982
#
# Disc length: 2433 seconds
#
# Revision: 1
# Processed by: cddbd v1.4PL0 Copyright (c) Steve Scherf et al.
# Submitted via: audiograbber 1.80
#
DISCID=ae097f0c
DTITLE=Count Basie - One O'Clock Jump
DYEAR=1900
DGENRE=
TTITLE0=Li'l darling
TTITLE1=One o'clock jump
TTITLE2=Dance of the Gremlins
TTITLE3=Let's jump
TTITLE4=Slow but sure
TTITLE5=Jazz Me Blues
TTITLE6=Five o'clock in the morning Blues
TTITLE7=Flight of the foo birds
TTITLE8=Chestnut Street Ramble
TTITLE9=Dinah
TTITLE10=Basie Boogie
TTITLE11=Rock-A-Bye Basie
EXTD=
EXTT0=
EXTT1=
EXTT2=
EXTT3=
EXTT4=
EXTT5=
EXTT6=
EXTT7=
EXTT8=
EXTT9=
EXTT10=
EXTT11=
PLAYORDER=
